<svg width="1664" height="300" viewBox="0 0 1664 300" xmlns="http://www.w3.org/2000/svg"><title>Corner Bracket Lover</title><path d="M214.4 45.36v201.6H128v52.32h143.52V45.36H214.4zM57.12 253.92V52.32h86.4V0H0v253.92h57.12zM411.482 73.238c-5.939-7.249-13.275-10.873-22.008-10.873-3.843 0-7.401.699-10.676 2.096-3.276 1.397-6.092 3.297-8.45 5.698-2.358 2.402-4.214 5.262-5.567 8.581-1.354 3.319-2.031 6.9-2.031 10.742 0 3.93.677 7.554 2.03 10.873 1.354 3.319 3.232 6.2 5.634 8.646 2.401 2.445 5.218 4.367 8.449 5.764 3.231 1.397 6.725 2.096 10.48 2.096 8.21 0 15.589-3.493 22.139-10.48v30.392l-2.62.917c-3.93 1.397-7.598 2.423-11.004 3.078a53.323 53.323 0 0 1-10.087.983c-6.812 0-13.34-1.288-19.584-3.864-6.245-2.577-11.747-6.201-16.507-10.874-4.76-4.672-8.58-10.217-11.462-16.637-2.882-6.419-4.323-13.427-4.323-21.025 0-7.598 1.42-14.563 4.257-20.894 2.839-6.332 6.638-11.79 11.398-16.375 4.76-4.586 10.283-8.166 16.571-10.742 6.288-2.577 12.882-3.865 19.781-3.865 3.93 0 7.794.415 11.594 1.244 3.799.83 7.794 2.118 11.986 3.865v30.654zm28.739 31.833c0 2.27.415 4.345 1.244 6.222.83 1.878 1.922 3.516 3.275 4.913 1.354 1.397 2.97 2.489 4.847 3.275a15.28 15.28 0 0 0 5.96 1.179 15.28 15.28 0 0 0 5.961-1.179c1.878-.786 3.494-1.878 4.847-3.275 1.354-1.397 2.446-3.035 3.275-4.913.83-1.877 1.245-3.908 1.245-6.091 0-2.096-.415-4.083-1.245-5.96-.83-1.878-1.921-3.516-3.275-4.913-1.353-1.397-2.97-2.489-4.847-3.275a15.28 15.28 0 0 0-5.96-1.179 15.28 15.28 0 0 0-5.96 1.179c-1.878.786-3.494 1.878-4.848 3.275a16.933 16.933 0 0 0-3.275 4.847c-.83 1.834-1.244 3.799-1.244 5.895zm-25.021-.262c0-4.978 1.004-9.628 3.013-13.951a34.268 34.268 0 0 1 8.384-11.267c3.58-3.187 7.838-5.698 12.772-7.532 4.935-1.834 10.327-2.751 16.179-2.751 5.764 0 11.113.895 16.047 2.685 4.935 1.79 9.214 4.28 12.838 7.468a33.496 33.496 0 0 1 8.45 11.397c2.008 4.41 3.013 9.279 3.013 14.606s-1.026 10.196-3.079 14.606c-2.052 4.41-4.869 8.21-8.45 11.398-3.58 3.187-7.881 5.654-12.903 7.401-5.022 1.747-10.458 2.62-16.31 2.62-5.763 0-11.09-.873-15.981-2.62s-9.105-4.236-12.642-7.467c-3.537-3.231-6.31-7.096-8.318-11.593-2.009-4.498-3.013-9.498-3.013-15zm86.64-33.012h23.711v11.004c2.533-4.017 5.633-7.096 9.301-9.236 3.668-2.14 7.948-3.209 12.838-3.209h2.03c.743 0 1.595.087 2.555.262v22.663c-3.144-1.572-6.55-2.358-10.218-2.358-5.502 0-9.628 1.637-12.38 4.912-2.75 3.276-4.126 8.057-4.126 14.345V139h-23.71V71.797zm53.367 0h23.711v8.515c3.231-3.93 6.506-6.572 9.825-7.925 3.319-1.354 7.205-2.031 11.659-2.031 4.716 0 8.755.764 12.118 2.293 3.362 1.528 6.222 3.69 8.58 6.484 1.921 2.27 3.231 4.803 3.93 7.598.699 2.795 1.048 5.982 1.048 9.563V139h-23.711v-33.929c0-3.319-.24-6.004-.72-8.056-.48-2.053-1.332-3.69-2.555-4.913-1.048-1.048-2.227-1.79-3.537-2.227-1.31-.437-2.707-.655-4.192-.655-4.017 0-7.096 1.2-9.235 3.603-2.14 2.401-3.21 5.829-3.21 10.283V139h-23.711V71.797zm128.43 23.842c-.786-3.319-2.402-5.982-4.847-7.991-2.446-2.009-5.415-3.013-8.908-3.013-3.668 0-6.66.96-8.974 2.882-2.314 1.921-3.777 4.629-4.388 8.122h27.117zm-27.772 13.755c0 10.218 4.803 15.327 14.41 15.327 5.152 0 9.039-2.096 11.659-6.288h22.925c-4.629 15.37-16.2 23.056-34.715 23.056-5.677 0-10.873-.851-15.59-2.554-4.715-1.704-8.754-4.127-12.117-7.271-3.362-3.144-5.96-6.9-7.794-11.266-1.834-4.367-2.751-9.257-2.751-14.672 0-5.59.873-10.633 2.62-15.13 1.746-4.498 4.235-8.319 7.467-11.463 3.231-3.144 7.14-5.567 11.724-7.27 4.585-1.704 9.76-2.555 15.524-2.555 5.676 0 10.785.851 15.327 2.554 4.541 1.704 8.384 4.17 11.528 7.402 3.144 3.231 5.545 7.183 7.205 11.856 1.66 4.672 2.489 9.934 2.489 15.785v2.489h-49.911zm55.724-37.597H735.3v11.004c2.533-4.017 5.633-7.096 9.301-9.236 3.668-2.14 7.948-3.209 12.838-3.209h2.03c.743 0 1.595.087 2.555.262v22.663c-3.144-1.572-6.55-2.358-10.218-2.358-5.502 0-9.628 1.637-12.38 4.912-2.75 3.276-4.126 8.057-4.126 14.345V139h-23.71V71.797zm118 47.291h5.633c6.462 0 11.091-.83 13.886-2.489 2.794-1.66 4.192-4.323 4.192-7.991 0-3.668-1.398-6.332-4.192-7.991-2.795-1.66-7.424-2.489-13.886-2.489h-5.633v20.96zm0-40.086h4.716c8.034 0 12.052-3.188 12.052-9.563s-4.018-9.563-12.052-9.563h-4.716v19.126zm-25.676-38.776h38.252c9.082 0 15.982 2.183 20.698 6.55 4.716 4.367 7.074 10.655 7.074 18.864 0 4.978-.895 9.104-2.686 12.38-1.79 3.275-4.52 6.047-8.187 8.318 3.668.699 6.79 1.768 9.366 3.21 2.577 1.44 4.673 3.209 6.288 5.305 1.616 2.096 2.773 4.454 3.472 7.074.698 2.62 1.048 5.415 1.048 8.384 0 4.629-.808 8.733-2.424 12.314-1.615 3.58-3.886 6.594-6.812 9.039-2.925 2.445-6.484 4.28-10.676 5.502-4.192 1.223-8.908 1.834-14.148 1.834h-41.265V40.226zm80.745 31.571h23.711v11.004c2.533-4.017 5.633-7.096 9.301-9.236 3.668-2.14 7.948-3.209 12.838-3.209h2.031c.742 0 1.594.087 2.554.262v22.663c-3.144-1.572-6.55-2.358-10.218-2.358-5.502 0-9.628 1.637-12.379 4.912-2.751 3.276-4.127 8.057-4.127 14.345V139h-23.71V71.797zm76.161 33.405c0 2.183.393 4.214 1.18 6.091.785 1.878 1.855 3.516 3.209 4.913 1.353 1.397 2.969 2.489 4.847 3.275 1.877.786 3.908 1.179 6.091 1.179a15.28 15.28 0 0 0 5.96-1.179c1.878-.786 3.494-1.878 4.848-3.275a16.933 16.933 0 0 0 3.275-4.847c.83-1.834 1.244-3.799 1.244-5.895a14.59 14.59 0 0 0-1.244-5.96c-.83-1.878-1.922-3.516-3.275-4.913-1.354-1.397-2.97-2.489-4.847-3.275a15.28 15.28 0 0 0-5.96-1.179c-2.184 0-4.215.393-6.092 1.179-1.878.786-3.494 1.878-4.847 3.275a16.142 16.142 0 0 0-3.21 4.782c-.786 1.79-1.179 3.733-1.179 5.829zm29.868-33.405h23.842V139h-23.842v-7.467c-5.065 6.375-11.92 9.563-20.567 9.563-4.89 0-9.388-.895-13.493-2.685a32.54 32.54 0 0 1-10.742-7.533c-3.057-3.231-5.436-7.03-7.14-11.397-1.702-4.367-2.554-9.126-2.554-14.279 0-4.803.83-9.366 2.49-13.69 1.658-4.323 3.973-8.1 6.942-11.331 2.97-3.231 6.506-5.786 10.611-7.663 4.105-1.878 8.646-2.817 13.624-2.817 8.384 0 15.327 2.926 20.83 8.777v-6.681zm82.973 21.746c-4.105-2.795-8.253-4.192-12.445-4.192-2.27 0-4.389.393-6.354 1.179-1.965.786-3.69 1.9-5.174 3.34a15.363 15.363 0 0 0-3.472 5.11c-.83 1.965-1.244 4.17-1.244 6.615 0 2.358.415 4.52 1.244 6.484.83 1.966 1.965 3.668 3.406 5.11 1.441 1.44 3.166 2.554 5.175 3.34 2.008.786 4.148 1.179 6.419 1.179 4.454 0 8.602-1.528 12.445-4.585v20.174c-5.852 2.533-11.397 3.799-16.637 3.799-4.89 0-9.541-.83-13.952-2.489-4.41-1.66-8.296-4.04-11.659-7.14-3.362-3.1-6.048-6.811-8.056-11.135-2.009-4.323-3.013-9.148-3.013-14.475s.96-10.196 2.882-14.606c1.921-4.41 4.541-8.21 7.86-11.398 3.319-3.187 7.27-5.676 11.855-7.466 4.585-1.79 9.498-2.686 14.738-2.686 5.764 0 11.091 1.223 15.982 3.668v20.174zm32.8-63.273v65.762l24.89-24.235h32.488l-33.667 31.047L1165.803 139h-33.274l-26.07-27.379V139h-23.71V30.27h23.71zm105.111 65.369c-.786-3.319-2.401-5.982-4.847-7.991-2.445-2.009-5.414-3.013-8.908-3.013-3.668 0-6.659.96-8.973 2.882-2.315 1.921-3.777 4.629-4.389 8.122h27.117zm-27.772 13.755c0 10.218 4.803 15.327 14.41 15.327 5.153 0 9.04-2.096 11.66-6.288h22.924c-4.628 15.37-16.2 23.056-34.715 23.056-5.677 0-10.873-.851-15.589-2.554-4.716-1.704-8.755-4.127-12.117-7.271-3.363-3.144-5.96-6.9-7.795-11.266-1.834-4.367-2.75-9.257-2.75-14.672 0-5.59.873-10.633 2.62-15.13 1.746-4.498 4.235-8.319 7.466-11.463 3.232-3.144 7.14-5.567 11.725-7.27 4.585-1.704 9.76-2.555 15.523-2.555 5.677 0 10.786.851 15.327 2.554 4.542 1.704 8.384 4.17 11.528 7.402 3.144 3.231 5.546 7.183 7.205 11.856 1.66 4.672 2.49 9.934 2.49 15.785v2.489h-49.912zm83.104-17.816V139h-23.711V91.578h-7.86V71.797h7.86V51.623h23.71v20.174h13.494v19.781h-13.493zm79.485-51.352v77.028h30.785V139h-56.46V40.226h25.675zm56.51 64.845c0 2.27.416 4.345 1.245 6.222.83 1.878 1.922 3.516 3.275 4.913 1.354 1.397 2.97 2.489 4.847 3.275a15.28 15.28 0 0 0 5.96 1.179 15.28 15.28 0 0 0 5.961-1.179c1.878-.786 3.494-1.878 4.847-3.275 1.354-1.397 2.446-3.035 3.275-4.913.83-1.877 1.245-3.908 1.245-6.091 0-2.096-.415-4.083-1.245-5.96-.83-1.878-1.92-3.516-3.275-4.913-1.353-1.397-2.969-2.489-4.847-3.275a15.28 15.28 0 0 0-5.96-1.179 15.28 15.28 0 0 0-5.96 1.179c-1.878.786-3.494 1.878-4.848 3.275a16.933 16.933 0 0 0-3.275 4.847c-.83 1.834-1.244 3.799-1.244 5.895zm-25.02-.262c0-4.978 1.004-9.628 3.013-13.951a34.268 34.268 0 0 1 8.384-11.267c3.58-3.187 7.838-5.698 12.772-7.532 4.935-1.834 10.328-2.751 16.179-2.751 5.764 0 11.113.895 16.047 2.685 4.935 1.79 9.214 4.28 12.838 7.468a33.496 33.496 0 0 1 8.45 11.397c2.009 4.41 3.013 9.279 3.013 14.606s-1.026 10.196-3.079 14.606c-2.052 4.41-4.868 8.21-8.45 11.398-3.58 3.187-7.88 5.654-12.903 7.401-5.021 1.747-10.458 2.62-16.31 2.62-5.763 0-11.09-.873-15.981-2.62-4.89-1.747-9.105-4.236-12.642-7.467-3.537-3.231-6.31-7.096-8.318-11.593-2.009-4.498-3.013-9.498-3.013-15zm101.837-33.012l15.982 34.453 16.244-34.453h26.462L1503.426 139h-15.851l-34.584-67.203h26.724zm105.111 23.842c-.786-3.319-2.401-5.982-4.847-7.991-2.445-2.009-5.414-3.013-8.908-3.013-3.668 0-6.659.96-8.973 2.882-2.315 1.921-3.777 4.629-4.389 8.122h27.117zm-27.772 13.755c0 10.218 4.804 15.327 14.41 15.327 5.153 0 9.04-2.096 11.66-6.288h22.924c-4.628 15.37-16.2 23.056-34.715 23.056-5.676 0-10.873-.851-15.589-2.554-4.716-1.704-8.755-4.127-12.117-7.271-3.363-3.144-5.96-6.9-7.795-11.266-1.834-4.367-2.75-9.257-2.75-14.672 0-5.59.873-10.633 2.62-15.13 1.746-4.498 4.235-8.319 7.466-11.463 3.232-3.144 7.14-5.567 11.725-7.27 4.585-1.704 9.76-2.555 15.523-2.555 5.677 0 10.786.851 15.327 2.554 4.542 1.704 8.384 4.17 11.528 7.402 3.144 3.231 5.546 7.183 7.205 11.856 1.66 4.672 2.49 9.934 2.49 15.785v2.489h-49.912zm55.725-37.597h23.711v11.004c2.533-4.017 5.633-7.096 9.301-9.236 3.668-2.14 7.947-3.209 12.838-3.209h2.03c.743 0 1.594.087 2.555.262v22.663c-3.144-1.572-6.55-2.358-10.218-2.358-5.502 0-9.629 1.637-12.38 4.912-2.75 3.276-4.126 8.057-4.126 14.345V139h-23.711V71.797zM343.04 186.84v49.04h8.32v-41.6h18.24v-7.44h-26.56zm30.445 6.8v7.84h28.8l-.96 4.8h-18.48v46.16h-10.88v7.6h71.6v-7.6h-11.28v-46.16h-22.4c.32-1.6.72-3.2 1.04-4.8h31.04v-7.84h-29.76c.16-1.76.4-3.6.64-5.52l-8.48-1.2c-.24 2.16-.48 4.4-.8 6.72h-30.08zm17.68 58.8v-4.72h32.8v4.72h-32.8zm0-11.28v-4.8h32.8v4.8h-32.8zm0-11.36v-4.64h32.8v4.64h-32.8zm0-11.28v-4.88h32.8v4.88h-32.8zm73.485 10.16h16.16v7.44h-16.64c.24-2.16.4-4.4.48-6.8v-.64zm-1.68 14.8h43.2v7.44c0 1.76-.8 2.72-2.24 2.72-3.2 0-6.64-.16-10.4-.4l2.08 7.68h10.72c5.36 0 8.08-2.4 8.08-7.12v-47.44h-17.2c2.48-2.08 4.96-4.56 7.52-7.28V193h-28.48c.96-1.44 2-2.88 2.96-4.32l-8.4-1.92c-6.8 9.76-14.8 17.36-24 22.64l5.28 6.4c1.44-.96 2.88-1.92 4.4-2.96v17.12c-.16 10.56-3.12 19.2-8.96 25.92l6.48 5.84c4.24-5.12 7.2-11.2 8.96-18.24zm43.2-7.36h-17.12v-7.44h17.12v7.44zm0-14.64h-17.12v-7.6h17.12v7.6zm-41.68-15.12c2.08-1.92 4.08-4 6.08-6.16h22.88c-2.72 2.24-5.36 4.32-7.92 6.16h-21.04zm16.32 7.52v7.6h-16.16v-7.6h16.16zm98.845-26.64v74.24h8.4v-74.24h-8.4zm-44.64 27.92h27.6V189.8h-36.8v7.52h28.56v10.24h-26.24l-4.32 26.08h31.2c0 8.16-.4 13.44-1.12 15.84-.88 2.48-4.16 3.76-9.84 3.76-2.64 0-5.2-.16-7.76-.4l2.08 7.76c2.56.16 5.12.32 7.68.32 9.28-.48 14.48-2.96 15.6-7.6 1.12-4.64 1.76-13.68 1.76-27.28h-30.72l2.32-10.88zm65.405-25.28V213h24.64v-23.12h-24.64zm16.96 16.24h-9.28v-9.36h9.28v9.36zm-19.36 10.16v7.68h6.32c-.96 4.32-2.16 9.2-3.68 14.48h15.12c-.24 8-.96 12.48-2.16 13.44-1.12.88-3.52 1.36-7.04 1.36-1.12 0-2.24-.08-3.52-.24l2.32 7.6h1.04c6.96 0 11.52-1.04 13.68-3.04s3.44-10.8 3.76-26.48H610.5c.64-2.08 1.2-4.48 1.84-7.12h14.32v-7.68h-28.64zm46.4-29.28v14.48h-15.84v24.32c-.16 12.16-2.08 22.32-5.6 30.32l6.48 5.6c4.64-9.92 6.96-21.92 6.96-35.92v-17.04h8.24v5.84l-7.68 1.04 1.12 6.96 6.56-.88v3.12c0 4.32 2.56 6.48 7.68 6.48h15.44v-7.12h-13.12c-1.44 0-2.16-.48-2.16-1.28v-2.24l9.12-1.28-.64-3.92 5.84 1.68c1.6-4 2.72-7.92 3.36-11.92v-3.76h-17.6v-3.84h15.68v-6.8h-15.68V187h-8.16zm8.08 21.76h9.28c-.4 1.2-.8 2.4-1.28 3.68l-8 1.12v-4.8zm-12.16 24.48c-.16 11.68-2.48 19.52-7.04 23.6l6.56 5.12c5.36-5.2 8.16-14.8 8.32-28.72h-7.84zm23.28 26.88c3.6-.24 5.84-1.04 6.8-2.32 1.12-1.44 1.68-5.44 1.68-11.92l-6.96-2.64c0 2.96-.08 5.28-.24 6.88-.16 1.6-.72 2.48-1.68 2.56h-2.4c-.64-.08-.96-.4-.96-.88v-18.56h-7.6v20.08c0 4.48 2.72 6.8 8.24 6.8h3.12zm27.645-47.6v41.6h-18.24v7.44h26.56v-49.04h-8.32zm87.21 16.96c2.8 0 4.88-.4 6.32-1.2 1.44-.8 2.4-3.44 2.96-7.92l-7.68-2.48c-.16 2.4-.56 3.84-1.04 4.32-.48.4-1.2.64-2.08.64h-13.36c-1.2 0-1.76-.88-1.76-2.48v-7.2h-8.08v8.96c0 3.84 1.52 6.16 4.72 6.96-1.76 1.76-3.84 3.6-6.4 5.36-1.52-1.2-2.96-2.48-4.4-3.84l-5.92 4.08c1.12 1.12 2.32 2.32 3.6 3.52-2.72 1.28-5.6 2.48-8.8 3.68l4.96 6.48c3.52-1.6 6.88-3.2 9.92-4.96 2.72 2.08 5.68 4.08 8.8 5.84-7.68 1.92-16.96 3.44-27.76 4.56l3.12 7.92c13.6-1.84 25.04-4.4 34.32-7.68 10.08 4.16 21.52 6.64 34.32 7.44l2.08-8c-9.12-.48-17.68-1.84-25.6-4.24 5.28-2.96 9.36-6.32 12.24-10.16v-5.76h-28.64a65.72 65.72 0 0 0 3.12-3.84h11.04zm-7.52 16.32c-3.92-1.76-7.68-3.68-11.28-5.92h22.16c-2.88 2.16-6.56 4.16-10.88 5.92zm21.36-32.56l-6.08 3.84c4 5.28 7.28 10 9.68 14.32l6.96-4.88c-1.52-2.24-3.36-4.72-5.6-7.52h6.4v-15.2h-11.6c1.04-1.68 2.08-3.52 3.04-5.52l-6.96-2.48c4.72-.48 9.12-1.04 13.28-1.6l-3.84-6.72c-16.64 2.08-36.8 3.12-60.64 3.12l2.32 7.04c18.48 0 34.32-.64 47.6-1.76-1.12 2.72-2.32 5.36-3.76 7.92h-9.28c-.72-2.24-1.44-4.32-2.24-6.24l-8.08 1.28c.72 1.52 1.36 3.2 2 4.96h-11.04c-.64-2.08-1.2-3.92-1.84-5.6l-8.16 1.2c.56 1.36 1.12 2.8 1.68 4.4h-11.12V219h7.44c-1.76 2.88-3.92 5.36-6.48 7.36l5.92 5.2c4.08-3.44 7.36-8.32 9.92-14.72l-6.96-2.8c-.48 1.36-1.12 2.64-1.84 3.92v-6.8h25.36l-4.4 4.32c3.6 2.4 6.4 4.64 8.48 6.72l5.12-5.28c-2.08-1.92-4.72-3.84-7.76-5.76h25.84v5.92l-3.36-3.84zm28.605-26.64c-.8 5.12-1.68 10.16-2.64 15.04h-9.12v8.08h7.36c-1.92 7.84-4 15.12-6.32 21.84 4.24 3.12 8.16 6.16 11.76 9.12-3.52 5.44-8.08 10.08-13.52 14.08l5.76 7.12c5.76-4.48 10.48-9.68 14.32-15.76 3.36 2.88 6.32 5.6 8.8 8.16l5.68-6.56c-2.72-2.72-6.24-5.68-10.48-9.04 4.24-9.2 6.64-20 7.12-32.48v-4.56h-13.12c.8-4.4 1.68-9.12 2.56-14.24l-8.16-.8zm4.88 47.04c-2-1.52-4.16-3.04-6.48-4.64 1.92-5.2 3.76-11.6 5.52-19.28h6.64c-.64 8.88-2.56 16.88-5.68 23.92zm15.44-13.68v8.16h17.04v20.48c0 2.72-.72 4.08-2.08 4.08-3.92 0-7.52-.08-10.72-.16l2.16 7.92h12c4.64 0 7.04-3.12 7.04-9.36v-22.96h15.28v-8.16h-15.28v-6.24c4.64-4.72 8.8-9.76 12.48-15.04v-8.16h-35.68v8.16h26.08c-3.68 4.8-7.44 8.96-11.28 12.48v8.8h-17.04zm50.205-25.2v7.76h21.68v7.12h-28.08v7.84h32.96c-10.72 5.76-22.16 10.08-34.24 12.88l3.52 7.76c4.16-1.52 8.16-2.96 12-4.4v27.84h8.48v-2.88h31.2v2.88h8.4v-37.44h-25.84c3.36-1.76 6.4-3.36 9.12-4.96l2.64-1.68h23.68v-7.84h-13.36c4.32-3.84 8.48-8.08 12.32-12.8l-6.32-4.64c-5.2 6.4-11.52 12.16-18.88 17.44h-9.12v-7.12h17.2v-7.76h-17.2v-7.6h-8.48v7.6h-21.68zm16.32 50h31.2v6.56h-31.2v-6.56zm31.2-7.2h-31.2v-6.24h31.2v6.24z" fill="#6D52A7" fill-rule="evenodd"/></svg>
