<svg width="1132" height="300" viewBox="0 0 1132 300" xmlns="http://www.w3.org/2000/svg"><title>Disable WYSIWYG</title><path d="M0 110.526h134.21v134.21H0v-134.21zm23.684 23.685h86.842v86.842H23.684V134.21zM0 55.263h300v23.684H0V55.263zm165.79 55.263H300v23.685H165.79v-23.685zm0 55.263H300v23.685H165.79v-23.685zm0 55.264H300v23.684H165.79v-23.684zM0 276.316h300V300H0v-23.684zM0 0h300v23.684H0V0zm407.975 105.266h6.705c5.066 0 9.586-.795 13.559-2.384 3.973-1.59 7.326-3.775 10.058-6.556 2.731-2.781 4.817-6.084 6.257-9.908 1.44-3.825 2.161-8.022 2.161-12.591 0-4.47-.745-8.642-2.235-12.516-1.49-3.874-3.6-7.202-6.333-9.983-2.731-2.781-6.084-4.967-10.057-6.556-3.973-1.59-8.443-2.384-13.41-2.384h-6.705v62.878zm-29.204-87.612h43.21c7.649 0 14.825 1.54 21.53 4.619 6.706 3.08 12.566 7.177 17.582 12.293 5.017 5.115 8.965 11.075 11.846 17.88 2.88 6.804 4.321 13.931 4.321 21.381 0 7.35-1.415 14.428-4.246 21.233-2.832 6.804-6.755 12.789-11.772 17.954-5.016 5.165-10.876 9.288-17.582 12.367-6.705 3.08-13.931 4.619-21.679 4.619h-43.21V17.654zm132.816 35.909V130h-26.97V53.563h26.97zM482.83 24.21c0-2.086.397-4.048 1.192-5.886a15.457 15.457 0 0 1 8.12-8.12c1.838-.795 3.8-1.192 5.886-1.192 2.086 0 4.047.397 5.885 1.192a15.457 15.457 0 0 1 8.12 8.12c.795 1.838 1.193 3.8 1.193 5.886 0 2.086-.398 4.048-1.192 5.886a15.457 15.457 0 0 1-8.121 8.12c-1.838.795-3.8 1.192-5.885 1.192-2.087 0-4.048-.397-5.886-1.192a15.457 15.457 0 0 1-8.12-8.12c-.795-1.838-1.192-3.8-1.192-5.886zm89.158 49.021c-4.967-2.583-9.834-3.874-14.602-3.874-2.483 0-4.495.497-6.034 1.49-1.54.993-2.31 2.334-2.31 4.023 0 .894.124 1.614.373 2.16.248.547.794 1.068 1.639 1.565.844.497 2.086.944 3.725 1.341 1.639.397 3.799.894 6.481 1.49 7.45 1.49 13.013 4.147 16.688 7.971 3.675 3.825 5.513 8.717 5.513 14.677 0 4.47-.894 8.493-2.682 12.069a25.668 25.668 0 0 1-7.45 9.014c-3.179 2.434-7.003 4.321-11.473 5.663-4.47 1.34-9.387 2.011-14.751 2.011-10.33 0-20.512-2.93-30.545-8.791l9.834-19.072c7.55 5.165 14.701 7.748 21.456 7.748 2.483 0 4.52-.546 6.109-1.639 1.59-1.093 2.384-2.483 2.384-4.172 0-.993-.124-1.813-.372-2.459-.249-.645-.77-1.241-1.565-1.787-.795-.547-1.962-1.043-3.501-1.49-1.54-.448-3.552-.92-6.035-1.416-8.344-1.689-14.18-4.197-17.507-7.525-3.328-3.327-4.992-7.921-4.992-13.782 0-4.271.795-8.12 2.384-11.547 1.59-3.428 3.874-6.333 6.854-8.717 2.98-2.384 6.58-4.222 10.803-5.513 4.221-1.291 8.915-1.937 14.08-1.937 8.443 0 16.638 1.639 24.585 4.917l-9.089 17.582zm41.479 18.327c0 2.483.447 4.793 1.34 6.928.895 2.136 2.111 3.999 3.651 5.588 1.54 1.59 3.377 2.831 5.513 3.725 2.136.894 4.445 1.341 6.929 1.341 2.384 0 4.643-.447 6.779-1.341 2.136-.894 3.973-2.136 5.513-3.725a19.26 19.26 0 0 0 3.725-5.513c.944-2.086 1.416-4.321 1.416-6.705 0-2.384-.472-4.644-1.416-6.78-.944-2.135-2.185-3.998-3.725-5.587-1.54-1.59-3.377-2.831-5.513-3.725-2.136-.894-4.395-1.341-6.78-1.341-2.483 0-4.792.447-6.928 1.341-2.136.894-3.973 2.136-5.513 3.725a18.36 18.36 0 0 0-3.65 5.438c-.894 2.037-1.341 4.247-1.341 6.631zm33.972-37.995h27.118V130h-27.118v-8.493c-5.762 7.251-13.56 10.877-23.393 10.877-5.563 0-10.679-1.018-15.347-3.054a37.011 37.011 0 0 1-12.218-8.568c-3.477-3.675-6.184-7.996-8.121-12.963-1.937-4.967-2.905-10.38-2.905-16.241 0-5.463.943-10.653 2.83-15.57 1.888-4.918 4.52-9.214 7.898-12.889 3.377-3.675 7.4-6.58 12.069-8.716 4.668-2.136 9.833-3.204 15.496-3.204 9.536 0 17.432 3.328 23.69 9.983v-7.599zm97.651 38.442c0-2.384-.447-4.644-1.341-6.78a17.215 17.215 0 0 0-3.725-5.587 18.521 18.521 0 0 0-5.513-3.8c-2.086-.943-4.37-1.415-6.854-1.415-2.384 0-4.619.447-6.705 1.341a16.58 16.58 0 0 0-5.438 3.725c-1.54 1.59-2.782 3.452-3.725 5.587a16.589 16.589 0 0 0-1.416 6.78c0 2.384.447 4.619 1.341 6.705a16.58 16.58 0 0 0 3.725 5.438c1.59 1.54 3.452 2.782 5.588 3.726a16.589 16.589 0 0 0 6.779 1.415c2.384 0 4.619-.447 6.705-1.341a16.58 16.58 0 0 0 5.439-3.725 19.26 19.26 0 0 0 3.725-5.513 15.73 15.73 0 0 0 1.415-6.556zM711.118 6.33v54.832c6.357-6.655 14.304-9.983 23.84-9.983 5.662 0 10.852 1.068 15.57 3.203 4.719 2.136 8.742 5.017 12.07 8.643 3.327 3.625 5.935 7.896 7.822 12.813 1.887 4.918 2.831 10.157 2.831 15.72 0 5.662-.968 10.976-2.905 15.943-1.937 4.967-4.644 9.288-8.121 12.963-3.477 3.675-7.574 6.58-12.292 8.716-4.719 2.136-9.81 3.204-15.273 3.204-9.933 0-17.78-3.626-23.542-10.877V130h-26.969V6.33h26.969zm95.715 0V130h-26.97V6.33h26.97zm65.616 74.351c-.894-3.775-2.732-6.804-5.513-9.089-2.781-2.285-6.159-3.427-10.132-3.427-4.172 0-7.574 1.093-10.206 3.278-2.633 2.185-4.297 5.265-4.992 9.238h30.843zm-31.588 15.645c0 11.622 5.463 17.433 16.39 17.433 5.86 0 10.281-2.384 13.261-7.152h26.075c-5.265 17.483-18.426 26.224-39.485 26.224-6.457 0-12.367-.968-17.73-2.905-5.365-1.938-9.96-4.694-13.783-8.27-3.825-3.576-6.78-7.847-8.866-12.814-2.086-4.967-3.129-10.53-3.129-16.688 0-6.357.993-12.094 2.98-17.21 1.987-5.115 4.818-9.461 8.493-13.037 3.675-3.576 8.12-6.332 13.336-8.27 5.215-1.937 11.1-2.905 17.656-2.905 6.457 0 12.268.968 17.433 2.906 5.165 1.937 9.536 4.743 13.112 8.418 3.576 3.675 6.308 8.17 8.195 13.484 1.887 5.315 2.831 11.3 2.831 17.955v2.831h-56.769zm-443.316 76.328l19.37 72.563 23.84-72.563h23.244l23.84 72.563 19.37-72.563h30.545L504.229 285h-29.8l-22.052-65.113L430.325 285h-29.8L367 172.654h30.545zm170.364 58.408l-40.975-58.408H561.8l20.86 30.694 20.71-30.694h34.867l-41.124 58.408V285h-29.204v-53.938zm128.345-29.651c-3.179-2.583-6.357-4.495-9.536-5.737-3.179-1.241-6.258-1.862-9.238-1.862-3.775 0-6.854.894-9.238 2.682-2.384 1.788-3.576 4.122-3.576 7.003 0 1.987.596 3.626 1.788 4.917 1.192 1.291 2.757 2.409 4.694 3.353 1.937.943 4.122 1.763 6.556 2.458a174.08 174.08 0 0 1 7.226 2.235c9.536 3.179 16.514 7.425 20.935 12.74 4.42 5.314 6.63 12.242 6.63 20.785 0 5.761-.968 10.976-2.905 15.645-1.937 4.669-4.768 8.667-8.493 11.995-3.726 3.327-8.295 5.91-13.708 7.748-5.414 1.837-11.548 2.756-18.402 2.756-14.205 0-27.366-4.222-39.485-12.665l12.516-23.542c4.37 3.874 8.692 6.755 12.963 8.642 4.271 1.887 8.493 2.831 12.665 2.831 4.768 0 8.32-1.093 10.654-3.278 2.334-2.185 3.501-4.669 3.501-7.45 0-1.689-.298-3.154-.894-4.395-.596-1.242-1.59-2.384-2.98-3.427-1.39-1.044-3.203-2.012-5.438-2.906-2.235-.894-4.942-1.887-8.121-2.98a163.028 163.028 0 0 1-11.1-3.948c-3.626-1.44-6.854-3.353-9.685-5.737-2.831-2.384-5.116-5.389-6.854-9.014-1.739-3.626-2.608-8.22-2.608-13.783 0-5.563.919-10.604 2.757-15.124 1.837-4.52 4.42-8.393 7.748-11.621 3.327-3.229 7.4-5.737 12.218-7.525 4.817-1.788 10.206-2.682 16.166-2.682 5.563 0 11.374.77 17.433 2.31a76.89 76.89 0 0 1 17.433 6.779l-11.622 22.797zm55.038-28.757V285h-29.204V172.654h29.204zm33.581 0l19.37 72.563 23.84-72.563h23.244l23.84 72.563 19.37-72.563h30.545L891.557 285h-29.8l-22.052-65.113L817.653 285h-29.8l-33.525-112.346h30.545zm170.364 58.408l-40.975-58.408h34.866l20.86 30.694 20.71-30.694h34.867l-41.124 58.408V285h-29.204v-53.938zm118.809-8.94h57.961c0 5.96-.248 11.374-.745 16.241-.497 4.867-1.49 9.387-2.98 13.559-2.086 5.86-4.917 11.05-8.493 15.57-3.576 4.52-7.773 8.295-12.59 11.325-4.818 3.03-10.108 5.339-15.869 6.928-5.761 1.59-11.82 2.384-18.178 2.384-8.741 0-16.713-1.44-23.914-4.321-7.202-2.88-13.386-6.928-18.551-12.144-5.165-5.215-9.188-11.472-12.069-18.773-2.88-7.302-4.321-15.372-4.321-24.213 0-8.741 1.416-16.762 4.247-24.064 2.83-7.3 6.854-13.534 12.069-18.699 5.215-5.165 11.497-9.188 18.848-12.069 7.35-2.88 15.546-4.321 24.585-4.321 11.721 0 22.002 2.533 30.843 7.599 8.84 5.066 15.844 12.913 21.01 23.542l-27.715 11.473c-2.583-6.159-5.935-10.579-10.057-13.261-4.123-2.682-8.816-4.023-14.081-4.023-4.37 0-8.344.82-11.92 2.459a25.832 25.832 0 0 0-9.163 7.002c-2.533 3.03-4.52 6.68-5.96 10.952-1.44 4.271-2.16 9.04-2.16 14.304-.001 4.768.62 9.188 1.862 13.261 1.241 4.073 3.104 7.599 5.587 10.579 2.483 2.98 5.563 5.29 9.238 6.929 3.675 1.639 7.947 2.458 12.814 2.458 2.88 0 5.662-.323 8.344-.969 2.682-.645 5.09-1.688 7.227-3.128 2.135-1.44 3.898-3.303 5.29-5.588 1.39-2.285 2.333-5.066 2.83-8.344h-23.989v-22.648z" fill="#A600FF" fill-rule="evenodd"/></svg>
