<svg width="1231" height="282" viewBox="0 0 1231 282" xmlns="http://www.w3.org/2000/svg"><title>Readability Buttons</title><path d="M282.968 143.172c0 .021-.005.04-.005.059l-5.12 46.232c-21.65-17.742-56.921-31.008-90.392-31.008-33.3 0-68.426 13.193-90.059 30.754l-5.09-45.978c0-.019-.01-.038-.01-.059-.035-14.15-6.874-26.593-17.292-34.57C81 51.524 128.955 7 187.45 7c58.59 0 106.602 44.676 112.473 101.887-10.217 7.988-16.918 20.293-16.955 34.285zm-11.379 99.061H103.673l-5.718-45.024c20.69-20.071 53.034-31.88 89.496-31.88 36.649 0 69.15 11.893 89.824 32.181l-5.686 44.723zM86.862 275.021c-17.646 0-16.702-.284-16.702-17.984l-27.204-63.54C19.586 192.672.884 173.461.884 149.818c0-24.17 19.528-43.757 43.624-43.757 24.056 0 43.556 19.529 43.62 43.644 0 .02.006.036.006.054L99.75 254.644c0 17.702 4.755 20.377-12.888 20.377zm245.447-81.524l-27.204 63.54c0 17.7.944 18.191-16.702 18.191s-12.888-2.882-12.888-20.584l11.615-104.885c0-.018.005-.035.005-.054.066-24.115 19.563-43.644 43.622-43.644 24.094 0 43.627 19.588 43.627 43.757 0 23.643-18.706 42.854-42.075 43.68zm113.666-131.63h5.513c5.761 0 10.182-1.192 13.261-3.576 3.08-2.384 4.619-5.811 4.619-10.281 0-4.47-1.54-7.897-4.619-10.281-3.08-2.384-7.5-3.576-13.261-3.576h-5.513v27.714zM510.194 124h-36.356l-27.863-43.21V124h-29.204V11.654h45.445c6.258 0 11.721.919 16.39 2.757 4.669 1.837 8.518 4.345 11.548 7.524 3.03 3.179 5.314 6.854 6.853 11.026 1.54 4.172 2.31 8.642 2.31 13.41 0 8.543-2.061 15.471-6.183 20.785-4.123 5.315-10.207 8.916-18.253 10.803L510.194 124zm55.187-49.319c-.894-3.775-2.732-6.804-5.513-9.089-2.782-2.285-6.16-3.427-10.132-3.427-4.173 0-7.575 1.093-10.207 3.278-2.632 2.185-4.296 5.265-4.991 9.238h30.843zm-31.588 15.645c0 11.622 5.463 17.433 16.39 17.433 5.86 0 10.28-2.384 13.26-7.152h26.076c-5.265 17.483-18.427 26.224-39.485 26.224-6.457 0-12.367-.968-17.731-2.906-5.365-1.937-9.959-4.693-13.783-8.269-3.824-3.576-6.78-7.847-8.865-12.814-2.087-4.967-3.13-10.53-3.13-16.688 0-6.357.994-12.094 2.98-17.21 1.987-5.115 4.818-9.461 8.494-13.037 3.675-3.576 8.12-6.332 13.335-8.27 5.215-1.937 11.1-2.905 17.657-2.905 6.456 0 12.267.968 17.433 2.906 5.165 1.937 9.535 4.743 13.112 8.418 3.576 3.675 6.307 8.17 8.195 13.484 1.887 5.315 2.83 11.3 2.83 17.955v2.831h-56.768zm88.413-4.768c0 2.483.447 4.793 1.341 6.928.894 2.136 2.11 3.999 3.65 5.588 1.54 1.59 3.378 2.831 5.514 3.725 2.135.894 4.445 1.341 6.928 1.341 2.384 0 4.644-.447 6.78-1.341 2.135-.894 3.973-2.136 5.513-3.725a19.26 19.26 0 0 0 3.725-5.513c.943-2.086 1.415-4.321 1.415-6.705 0-2.384-.472-4.644-1.415-6.78-.944-2.135-2.186-3.998-3.725-5.587-1.54-1.59-3.378-2.831-5.513-3.725-2.136-.894-4.396-1.341-6.78-1.341-2.483 0-4.793.447-6.928 1.341-2.136.894-3.974 2.136-5.513 3.725a18.36 18.36 0 0 0-3.651 5.438c-.894 2.037-1.341 4.247-1.341 6.631zm33.972-37.995h27.118V124h-27.118v-8.493c-5.761 7.251-13.559 10.877-23.393 10.877-5.563 0-10.678-1.018-15.347-3.055a37.011 37.011 0 0 1-12.218-8.567c-3.477-3.675-6.183-7.996-8.12-12.963-1.937-4.967-2.906-10.38-2.906-16.241 0-5.463.944-10.653 2.831-15.57 1.887-4.918 4.52-9.214 7.897-12.889 3.377-3.675 7.4-6.58 12.069-8.716 4.669-2.136 9.834-3.204 15.496-3.204 9.536 0 17.433 3.328 23.691 9.983v-7.599zm61.743 37.995c0 2.483.447 4.793 1.34 6.928.895 2.136 2.111 3.999 3.651 5.588 1.54 1.59 3.377 2.831 5.513 3.725 2.136.894 4.445 1.341 6.929 1.341 2.384 0 4.643-.447 6.779-1.341 2.136-.894 3.973-2.136 5.513-3.725a19.26 19.26 0 0 0 3.725-5.513c.944-2.086 1.416-4.321 1.416-6.705 0-2.384-.472-4.644-1.416-6.78-.944-2.135-2.185-3.998-3.725-5.587-1.54-1.59-3.377-2.831-5.513-3.725-2.136-.894-4.395-1.341-6.78-1.341-2.383 0-4.643.447-6.779 1.341-2.136.894-3.973 2.136-5.513 3.725a19.6 19.6 0 0 0-3.725 5.438c-.944 2.037-1.415 4.247-1.415 6.631zM751.893.33h27.118V124h-27.118v-8.493c-5.762 7.251-13.56 10.877-23.393 10.877-5.563 0-10.679-1.043-15.347-3.129-4.67-2.086-8.742-4.967-12.218-8.642-3.477-3.675-6.184-7.996-8.121-12.963-1.937-4.967-2.905-10.33-2.905-16.092 0-5.463.918-10.653 2.756-15.57 1.838-4.918 4.445-9.214 7.823-12.889 3.377-3.675 7.425-6.58 12.143-8.716 4.718-2.136 9.908-3.204 15.57-3.204 9.537 0 17.433 3.328 23.692 9.983V.33zm61.742 85.228c0 2.483.447 4.793 1.341 6.928.894 2.136 2.11 3.999 3.65 5.588 1.54 1.59 3.378 2.831 5.514 3.725 2.135.894 4.445 1.341 6.928 1.341 2.384 0 4.644-.447 6.78-1.341 2.135-.894 3.973-2.136 5.513-3.725a19.26 19.26 0 0 0 3.725-5.513c.943-2.086 1.415-4.321 1.415-6.705 0-2.384-.472-4.644-1.415-6.78-.944-2.135-2.186-3.998-3.725-5.587-1.54-1.59-3.378-2.831-5.513-3.725-2.136-.894-4.396-1.341-6.78-1.341-2.483 0-4.793.447-6.928 1.341-2.136.894-3.974 2.136-5.513 3.725a18.36 18.36 0 0 0-3.651 5.438c-.894 2.037-1.341 4.247-1.341 6.631zm33.972-37.995h27.118V124h-27.118v-8.493c-5.761 7.251-13.559 10.877-23.393 10.877-5.563 0-10.678-1.018-15.347-3.055a37.011 37.011 0 0 1-12.218-8.567c-3.477-3.675-6.183-7.996-8.12-12.963-1.937-4.967-2.906-10.38-2.906-16.241 0-5.463.944-10.653 2.831-15.57 1.887-4.918 4.52-9.214 7.897-12.889 3.377-3.675 7.4-6.58 12.069-8.716 4.669-2.136 9.834-3.204 15.496-3.204 9.536 0 17.433 3.328 23.691 9.983v-7.599zm97.652 38.442c0-2.384-.447-4.644-1.341-6.78a17.215 17.215 0 0 0-3.725-5.587 18.521 18.521 0 0 0-5.513-3.8c-2.086-.943-4.371-1.415-6.854-1.415-2.384 0-4.62.447-6.705 1.341a16.58 16.58 0 0 0-5.439 3.725c-1.54 1.59-2.781 3.452-3.725 5.587a16.589 16.589 0 0 0-1.415 6.78c0 2.384.447 4.619 1.34 6.705a16.58 16.58 0 0 0 3.726 5.438c1.589 1.54 3.451 2.782 5.587 3.726a16.589 16.589 0 0 0 6.78 1.415c2.384 0 4.619-.447 6.705-1.341a16.58 16.58 0 0 0 5.438-3.725 19.26 19.26 0 0 0 3.725-5.513 15.73 15.73 0 0 0 1.416-6.556zM911.287.33v54.832c6.357-6.655 14.303-9.983 23.84-9.983 5.662 0 10.852 1.068 15.57 3.203 4.718 2.136 8.741 5.017 12.069 8.643 3.328 3.625 5.935 7.896 7.823 12.813 1.887 4.918 2.83 10.157 2.83 15.72 0 5.662-.968 10.976-2.905 15.943-1.937 4.967-4.644 9.288-8.12 12.963-3.477 3.675-7.575 6.58-12.293 8.716-4.718 2.136-9.81 3.204-15.272 3.204-9.934 0-17.781-3.626-23.542-10.877V124h-26.97V.33h26.97zM1007 47.563V124h-26.969V47.563H1007zM978.244 18.21c0-2.086.397-4.048 1.192-5.886a15.457 15.457 0 0 1 8.12-8.12c1.838-.795 3.8-1.192 5.886-1.192 2.086 0 4.048.397 5.886 1.192a15.457 15.457 0 0 1 8.12 8.12c.795 1.838 1.192 3.8 1.192 5.886 0 2.086-.397 4.048-1.192 5.886a15.457 15.457 0 0 1-8.12 8.12c-1.838.795-3.8 1.192-5.886 1.192-2.086 0-4.048-.397-5.885-1.192a15.457 15.457 0 0 1-8.12-8.12c-.796-1.838-1.193-3.8-1.193-5.886zM1043.712.33V124h-26.97V.33h26.97zm36.71 47.233V124h-26.969V47.563h26.97zm-28.757-29.353c0-2.086.397-4.048 1.192-5.886a15.457 15.457 0 0 1 8.12-8.12c1.838-.795 3.8-1.192 5.886-1.192 2.086 0 4.048.397 5.886 1.192a15.457 15.457 0 0 1 8.12 8.12c.795 1.838 1.192 3.8 1.192 5.886 0 2.086-.397 4.048-1.192 5.886a15.457 15.457 0 0 1-8.12 8.12c-1.838.795-3.8 1.192-5.886 1.192-2.086 0-4.048-.397-5.885-1.192a15.457 15.457 0 0 1-8.12-8.12c-.796-1.838-1.193-3.8-1.193-5.886zm68.597 51.852V124h-26.97V70.062h-8.94V47.563h8.94V24.617h26.97v22.946h15.347v22.499h-15.347zm44.458 43.508l-36.952-66.007h31.29l20.413 39.187 19.817-39.187h30.992l-61.388 114.581h-30.247l26.075-48.574zM445.975 256.352h6.407c7.35 0 12.615-.944 15.794-2.831 3.179-1.887 4.768-4.917 4.768-9.089 0-4.172-1.59-7.202-4.768-9.089-3.179-1.887-8.443-2.831-15.794-2.831h-6.407v23.84zm0-45.594h5.364c9.139 0 13.708-3.626 13.708-10.877 0-7.251-4.57-10.877-13.708-10.877h-5.364v21.754zm-29.204-44.104h43.508c10.33 0 18.178 2.483 23.542 7.45 5.364 4.967 8.046 12.119 8.046 21.456 0 5.662-1.018 10.355-3.055 14.08-2.036 3.726-5.14 6.88-9.312 9.462 4.172.795 7.723 2.011 10.654 3.65 2.93 1.64 5.314 3.651 7.151 6.035 1.838 2.384 3.154 5.066 3.949 8.046.795 2.98 1.192 6.159 1.192 9.536 0 5.265-.919 9.933-2.757 14.006-1.837 4.073-4.42 7.5-7.748 10.281-3.327 2.781-7.375 4.867-12.143 6.258-4.768 1.39-10.132 2.086-16.092 2.086h-46.935V166.654zm118.81 35.909v43.061c0 9.437 4.569 14.155 13.708 14.155 9.138 0 13.708-4.718 13.708-14.155v-43.061h26.969v48.276c0 10.33-3.403 18.079-10.207 23.244-6.804 5.165-16.961 7.748-30.47 7.748-13.51 0-23.667-2.583-30.471-7.748-6.804-5.165-10.206-12.913-10.206-23.244v-48.276h26.969zm94.075 22.499V279h-26.969v-53.938h-8.94v-22.499h8.94v-22.946h26.969v22.946h15.347v22.499h-15.347zm50.866 0V279h-26.97v-53.938h-8.94v-22.499h8.94v-22.946h26.97v22.946h15.347v22.499h-15.347zm43.564 15.347c0 2.583.472 4.942 1.416 7.078.943 2.135 2.185 3.998 3.725 5.587 1.54 1.59 3.377 2.831 5.513 3.725 2.135.894 4.395 1.341 6.779 1.341 2.384 0 4.644-.447 6.78-1.341 2.135-.894 3.973-2.136 5.513-3.725 1.54-1.59 2.78-3.452 3.725-5.588.943-2.135 1.415-4.445 1.415-6.928 0-2.384-.472-4.644-1.415-6.78-.944-2.135-2.186-3.998-3.725-5.587-1.54-1.59-3.378-2.831-5.513-3.725-2.136-.894-4.396-1.341-6.78-1.341-2.384 0-4.644.447-6.78 1.341-2.135.894-3.973 2.136-5.512 3.725a19.26 19.26 0 0 0-3.725 5.513c-.944 2.086-1.416 4.321-1.416 6.705zm-28.459-.298c0-5.662 1.142-10.951 3.427-15.868a38.96 38.96 0 0 1 9.536-12.814c4.073-3.626 8.915-6.482 14.528-8.568 5.612-2.086 11.746-3.129 18.401-3.129 6.556 0 12.64 1.018 18.253 3.054 5.612 2.037 10.48 4.868 14.602 8.494 4.122 3.625 7.325 7.946 9.61 12.963 2.285 5.016 3.427 10.554 3.427 16.613 0 6.06-1.167 11.597-3.501 16.613-2.335 5.017-5.538 9.338-9.611 12.964-4.073 3.625-8.965 6.431-14.676 8.418-5.712 1.987-11.896 2.98-18.551 2.98-6.556 0-12.615-.993-18.178-2.98-5.563-1.987-10.355-4.818-14.378-8.493-4.023-3.675-7.177-8.07-9.462-13.187-2.285-5.115-3.427-10.802-3.427-17.06zm98.546-37.548h26.969v9.685c3.675-4.47 7.4-7.475 11.175-9.014 3.774-1.54 8.195-2.31 13.26-2.31 5.365 0 9.959.87 13.783 2.607 3.824 1.739 7.078 4.197 9.76 7.376 2.185 2.583 3.675 5.463 4.47 8.642.794 3.179 1.192 6.804 1.192 10.877V279h-26.97v-38.591c0-3.775-.273-6.83-.819-9.163-.546-2.335-1.515-4.197-2.905-5.588-1.192-1.192-2.533-2.036-4.023-2.533-1.49-.497-3.08-.745-4.768-.745-4.57 0-8.071 1.366-10.505 4.097-2.434 2.732-3.65 6.631-3.65 11.697V279h-26.97v-76.437zm140.861 19.668c-4.967-2.583-9.834-3.874-14.602-3.874-2.483 0-4.495.497-6.034 1.49-1.54.993-2.31 2.334-2.31 4.023 0 .894.124 1.614.373 2.16.248.547.794 1.068 1.639 1.565.844.497 2.086.944 3.725 1.341 1.639.397 3.799.894 6.481 1.49 7.45 1.49 13.013 4.147 16.688 7.972 3.675 3.824 5.513 8.716 5.513 14.676 0 4.47-.894 8.493-2.682 12.069a25.668 25.668 0 0 1-7.45 9.015c-3.179 2.433-7.003 4.32-11.473 5.661-4.47 1.342-9.387 2.012-14.75 2.012-10.332 0-20.513-2.93-30.546-8.791l9.834-19.072c7.55 5.165 14.701 7.748 21.456 7.748 2.483 0 4.52-.546 6.11-1.639 1.588-1.093 2.383-2.483 2.383-4.172 0-.993-.124-1.813-.372-2.459-.249-.645-.77-1.241-1.565-1.787-.795-.547-1.962-1.043-3.501-1.49-1.54-.448-3.552-.92-6.035-1.416-8.344-1.689-14.18-4.197-17.507-7.524-3.328-3.328-4.992-7.922-4.992-13.783 0-4.271.795-8.12 2.384-11.547 1.59-3.428 3.874-6.333 6.854-8.717 2.98-2.384 6.58-4.222 10.803-5.513 4.221-1.291 8.915-1.937 14.08-1.937 8.443 0 16.638 1.639 24.585 4.917l-9.089 17.582z" fill="#FF001F" fill-rule="evenodd"/></svg>
